<?xml version="1.0" encoding="UTF-8"?>
<svg width="16px" height="16px" viewBox="0 0 40 40" version="1.1" xmlns="http://www.w3.org/2000/svg">
    <title>Logo</title>
    <g id="Logo" stroke="none" stroke-width="1" fill="none" fill-rule="evenodd">
        <g id="truffle-logo-dark" transform="translate(1.000000, 1.000000)">
            <ellipse id="Oval" fill="#5E464D" cx="18.9548799" cy="19" rx="18.5491579" ry="19"/>
            <path d="M13.1215225,35.847758 C13.8803183,36.110045 16.4286228,36.9489916 16.5370222,36.128647 C16.5958151,35.6784805 15.2509276,35.2171529 13.4301852,34.2405522 C10.8406084,32.8548629 8.47158602,31.0827444 6.40259716,28.9836499 C3.38264578,25.9855758 1.64613752,21.9067923 1.56688166,17.6253182 C1.41255032,11.8773252 3.63198205,7.23056589 7.28265329,4.23193656 C2.81832514,7.72064403 0.14546393,13.0612815 0.00703270631,18.7693362 C-0.101366691,22.9268651 1.04693201,26.4296064 3.20389629,29.6179753 C3.87367897,30.4938488 4.65662233,31.2746693 5.53172742,31.9394948 C7.59866509,33.5225181 10.6209873,34.9864891 13.1215225,35.8458978"
                  id="Fill-6" fill="#FFFFFF"/>
            <path d="M37.7594195,14.6452908 C36.6092835,9.16888584 33.0339407,5.33503035 28.2515062,2.62659095 C31.9168757,5.26248287 37.0612539,10.867241 34.0205589,15.8116311 C31.4483698,19.7719796 25.2016249,18.9962796 21.7751015,17.1137654 C17.7110428,14.8815351 12.6254575,9.85901704 17.6412262,4.94997063 C20.8932081,1.77276287 31.2370829,5.33503035 29.4163404,10.0841003 C28.3543938,12.8464852 24.2205185,12.2326219 22.3611932,10.8821226 C20.9905839,9.88505972 19.8367733,8.17182299 20.4485869,6.4027805 C20.6433383,5.83542197 20.6157792,4.9555512 19.8239124,5.60289798 C19.239658,6.08654788 18.9365072,6.88271001 18.8336196,7.62678676 C17.9682617,13.8193656 28.8651571,18.6205209 32.0987662,12.6288428 C33.7762009,9.51860192 31.0570296,5.002056 27.6341808,3.15302526 C25.0619918,1.75788134 22.3850778,0.777560211 19.1036994,1.01566477 C13.8564337,1.38770315 9.45431579,4.71744664 8.90129514,10.1454866 C8.35011176,15.5400431 11.9125937,20.3951439 16.1070992,23.2989035 C20.5165662,26.3496182 26.4436248,28.3604856 31.8672692,26.5412179 C36.7287066,24.9098296 38.7368513,19.2604269 37.7594195,14.6490112"
                  id="Fill-8" fill="#FFFFFF"/>
            <path d="M30.9173965,10.4505581 C31.4391834,6.90131192 28.269879,4.46446054 25.3430953,3.35764637 C21.8926873,2.05551204 17.3344008,2.62473076 14.8210046,5.51732916 C12.9837267,7.6416683 13.1031497,10.7258665 14.0511852,13.222244 C15.4842619,16.9928529 18.7197084,19.7180341 22.4861281,20.8955355 C25.163042,21.7326219 28.3984885,22.0972195 31.1103107,21.2136284 C35.0659701,19.9245154 36.3539019,15.7483846 35.5363132,11.9219698 C35.3612642,11.0947738 35.0924666,10.2908077 34.73526,9.52604269 C34.2355204,8.46387312 32.7050679,6.31349129 34.814263,8.93264147 C35.0353537,9.22453559 35.2390413,9.52952921 35.4242392,9.84599569 C35.859334,10.5696518 36.2043018,11.3450441 36.4512776,12.1544938 C37.6014136,15.7260623 36.6993101,19.8928921 33.5116329,22.0488545 C31.066216,23.6988447 27.9575418,23.8960251 25.1207846,23.4830625 C21.3176193,22.9250049 17.7330901,21.064813 15.2417413,18.0717642 C12.9671912,15.3428627 11.4146913,11.4234384 12.3498658,7.84070883 C13.0351705,5.21969845 15.1370164,3.26277658 17.6540872,2.44615234 C20.8380898,1.40258469 24.3436161,1.88809477 27.2079324,3.58272959 C28.6446837,4.4291169 29.9638493,5.60103779 30.6987604,7.1375563 C31.0311575,7.82974278 31.2098814,8.58720508 31.2223846,9.35676522 C31.2296916,9.66845458 31.2056836,9.98008864 31.1507308,10.2868612 C31.1305207,10.3984727 30.8971864,10.7128451 30.9302574,10.4542784"
                  id="Fill-10" fill="#3FE0C5"/>
        </g>
    </g>
</svg>