<?xml version="1.0" encoding="UTF-8"?>
<svg width="16px" height="16px" viewBox="0 0 16 16" version="1.1" xmlns="http://www.w3.org/2000/svg" xmlns:xlink="http://www.w3.org/1999/xlink">
    <title>File</title>
    <defs>
        <path d="M10,0 L10.0012705,6.24660724 C9.5450886,6.08680573 9.05521598,6 8.54530302,6 C7.49248752,6 6.52510342,6.37005036 5.76329807,6.98859945 L5.76329807,6.98859945 L5.7463506,7.00230076 L5.56192958,7.15259515 C4.60252097,7.97768502 4.032929,9.17298538 4.00168641,10.4453691 C3.97569268,11.430047 4.25105003,12.2596436 4.76828128,13.0147836 C4.89346351,13.1764677 5.03513007,13.3244758 5.19232792,13.4569927 C5.36276135,13.6546284 5.54998889,13.8370566 5.75175981,14.0020002 L0,14 L0,5 L5,5 L5,0 L10,0 Z M4,0 L4,4 L0,4 L4,0 Z" id="path-1"/>
    </defs>
    <g id="File" stroke="none" stroke-width="1" fill="none" fill-rule="evenodd">
        <g id="Group" transform="translate(2.000000, 1.000000)">
            <mask id="mask-2" fill="white">
                <use xlink:href="#path-1"/>
            </mask>
            <use id="Combined-Shape" fill="#9AA7B0" xlink:href="#path-1"/>
        </g>
        <g id="truffle" transform="translate(6.500000, 7.600000)">
            <ellipse id="Oval" fill="#5E464D" cx="4.04026935" cy="4" rx="3.95378892" ry="4"/>
            <path d="M2.79687793,7.54689642 C2.95861672,7.60211474 3.50179275,7.77873507 3.52489829,7.60603094 C3.53743011,7.51125906 3.25076475,7.41413746 2.86266998,7.2085373 C2.31069667,6.91681325 1.80573496,6.54373566 1.36472598,6.10182103 C0.721017496,5.47064754 0.3508774,4.61195627 0.33398386,3.7105933 C0.301087835,2.50048952 0.774164005,1.5222244 1.55231165,0.890934012 C0.60073146,1.62539874 0.0310059182,2.74974347 0.00149903496,3.9514392 C-0.0216065065,4.82670844 0.223155585,5.56412767 0.682916697,6.23536323 C0.82568217,6.41975765 0.992568064,6.58414091 1.17909841,6.72410417 C1.61967017,7.05737223 2.263884,7.36557666 2.79687793,7.5465048" id="Fill-6" fill="#FFFFFF"/>
            <path d="M8.04849336,3.08321911 C7.80333965,1.93029176 7.0412484,1.12316428 6.02186324,0.552966517 C6.80314384,1.10789113 7.89967801,2.28784022 7.25154799,3.32876444 C6.7032809,4.16252203 5.37177513,3.99921676 4.64140505,3.60289798 C3.77514305,3.13295477 2.6911407,2.07558253 3.76026152,1.04209908 C4.45342776,0.373213237 6.65824468,1.12316428 6.27014991,2.12296847 C6.04379392,2.7045232 5.1626504,2.57528882 4.76633162,2.29097317 C4.47418359,2.0810652 4.22824664,1.72038379 4.35865588,1.34795379 C4.40016753,1.22850989 4.39429324,1.04327394 4.2255053,1.17955747 C4.10097035,1.2813785 4.03635316,1.44899158 4.01442247,1.60563932 C3.82996976,2.90934012 6.1526641,3.92010965 6.84191415,2.65870374 C7.19946261,2.00391619 6.61986598,1.05306442 5.89027914,0.663794791 C5.34201206,0.370080282 4.77142267,0.163696887 4.07199052,0.213824163 C2.95352567,0.292148032 2.01520571,0.993146661 1.89732829,2.13589191 C1.77984249,3.27158802 2.5391924,4.29371451 3.43325936,4.90503231 C4.37314579,5.54728804 5.6365098,5.97062855 6.79257011,5.58762483 C7.8287949,5.24417466 8.25683485,4.05482671 8.04849336,3.08400235" id="Fill-8" fill="#FFFFFF"/>
            <path d="M6.59010291,2.20011749 C6.70132281,1.45290777 6.02577943,0.93988643 5.40192982,0.70687292 C4.66646868,0.432739377 3.69486109,0.552574897 3.15912582,1.16154298 C2.76750648,1.60877227 2.79296173,2.25807715 2.99503732,2.78363031 C3.30050041,3.57744273 3.99014207,4.15116507 4.79296173,4.39906011 C5.36355112,4.57528882 6.05319279,4.65204621 6.63122294,4.46602702 C7.4743794,4.19463481 7.74890456,3.31544938 7.57463395,2.50988839 C7.53732192,2.33574185 7.48002718,2.16648582 7.40388791,2.00548267 C7.29736745,1.78186802 6.97114854,1.32915606 7.42072754,1.8805561 C7.46785347,1.94200749 7.51126986,2.00621668 7.55074517,2.0728412 C7.64348645,2.22518984 7.71701701,2.38843033 7.76966038,2.55884081 C8.01481409,3.31074995 7.82252899,4.18797729 7.14306943,4.64186411 C6.62182408,4.98923047 5.95920415,5.03074212 5.35454388,4.94380262 C4.54389183,4.82631682 3.77984249,4.43469747 3.24880665,3.80458195 C2.7639819,3.23007637 2.43306355,2.4049344 2.6323978,1.65067554 C2.77847182,1.09888388 3.22648435,0.686900333 3.76300285,0.51497944 C4.44167918,0.295280987 5.18888889,0.397493636 5.79942345,0.75425886 C6.10566978,0.932445663 6.38685247,1.17916585 6.54350021,1.50264343 C6.61435129,1.6483669 6.65244663,1.80783265 6.65511172,1.96984531 C6.65666922,2.03546412 6.65155186,2.10107129 6.63983857,2.16565498 C6.63553076,2.18915214 6.5857951,2.25533581 6.59284425,2.20090072" id="Fill-10" fill="#3FE0C5"/>
        </g>
    </g>
</svg>